#!OML:ASF H:\Dans Jumps\Project 1\Capture day 1\Session 1\subject.ASF
:FULLY-SPECIFIED
:DEGREES
364
root 0.246023 16.4511 0.26647 -3.71517 1.75931 -2.56962
lowerback 9.39118 1.35722 -1.06596
upperback 5.26012 1.73244 1.47262
thorax 0.114753 0.82779 1.96076
lowerneck -10.8461 -1.15173 -1.64254
upperneck 28.2681 -2.05615 2.85591
head 10.9353 -0.758086 1.06361
rclavicle 3.40225e-015 -3.4368e-015
rhumerus -28.3315 -19.5365 -79.3721
rradius 22.1106
rwrist 35.3994
rhand -25.886 -29.1495
rfingers 7.12502
rthumb 0.655839 -59.1282
lclavicle 3.40225e-015 -3.4368e-015
lhumerus -29.2975 8.98247 85.3679
lradius 3.94631
lwrist -0.106926
lhand -24.8917 -3.29285
lfingers 7.12502
lthumb 1.61619 26.6808
rfemur -32.5749 -2.87405 21.5919
rtibia 40.773
rfoot -3.2464 4.94026
rtoes 10.5416
lfemur -32.9266 3.2381 -17.1661
ltibia 35.1654
lfoot -6.31879 4.86033
ltoes -25.9201
365
root 0.238311 16.2115 0.408853 -4.58183 1.79425 -2.6094
lowerback 10.0638 1.37319 -1.15768
upperback 5.31281 1.74211 1.49155
thorax -0.201044 0.832758 2.01695
lowerneck -11.0378 -1.17454 -1.57176
upperneck 28.1623 -2.09978 2.84939
head 10.9341 -0.77056 1.04192
rclavicle -2.24875e-015 -2.48481e-016
rhumerus -27.7588 -20.5338 -78.9778
rradius 21.5967
rwrist 36.7461
rhand -26.1034 -29.4404
rfingers 7.12502
rthumb 0.44587 -59.4197
lclavicle -2.24875e-015 -2.48481e-016
lhumerus -28.9095 9.20213 85.4218
lradius 3.42095
lwrist 0.220363
lhand -25.6209 -3.46437
lfingers 7.12502
lthumb 0.911925 26.5134
rfemur -33.6103 -2.36935 21.6033
rtibia 45.0152
rfoot -5.81303 4.02201
rtoes 12.2054
lfemur -34.3247 2.91162 -16.9961
ltibia 39.4783
lfoot -4.8736 4.10585
ltoes -23.1079
366
root 0.22732 15.9698 0.54561 -5.28089 1.81534 -2.62877
lowerback 10.6149 1.40452 -1.32506
upperback 5.38716 1.76482 1.5221
thorax -0.430091 0.842047 2.12952
lowerneck -11.2337 -1.20255 -1.48712
upperneck 27.9166 -2.14057 2.80745
head 10.8801 -0.78552 1.00423
rclavicle 8.58501e-015 9.19379e-016
rhumerus -26.9531 -21.6652 -78.6107
rradius 21.0455
rwrist 38.4394
rhand -26.2647 -29.8022
rfingers 7.12502
rthumb 0.290086 -59.7817
lclavicle 8.58501e-015 9.19379e-016
lhumerus -28.3607 9.45617 85.5442
lradius 3.10849
lwrist 0.581241
lhand -26.4234 -3.58353
lfingers 7.12502
lthumb 0.136829 26.3962
rfemur -35.0233 -1.78669 21.597
rtibia 49.4008
rfoot -7.83266 2.82344
rtoes 13.1833
lfemur -36.0546 2.61391 -16.8319
ltibia 44.1587
lfoot -4.07982 3.5662
ltoes -17.9407
367
root 0.213941 15.7322 0.683131 -5.84732 1.801 -2.65431
lowerback 11.0239 1.45348 -1.53528
upperback 5.48669 1.80647 1.57306
thorax -0.557789 0.85888 2.28869
lowerneck -11.4025 -1.23262 -1.41602
upperneck 27.5786 -2.174 2.74736
head 10.7861 -0.801752 0.962836
rclavicle -1.84808e-014 -2.15433e-014
rhumerus -25.9833 -22.8492 -78.2945
rradius 20.507
rwrist 40.3792
rhand -26.3266 -30.2479
rfingers 7.12502
rthumb 0.230344 -60.2276
lclavicle -1.84808e-014 -2.15433e-014
lhumerus -27.6368 9.73095 85.7097
lradius 2.85274
lwrist 0.82921
lhand -27.2698 -3.79834
lfingers 7.12502
lthumb -0.680706 26.1803
rfemur -36.5256 -1.22443 21.6199
rtibia 53.6116
rfoot -9.62455 1.75794
rtoes 12.8723
lfemur -37.837 2.42721 -16.6696
ltibia 48.8262
lfoot -4.18886 3.41778
ltoes -11.7695
368
root 0.200923 15.5131 0.823611 -6.372 1.75609 -2.70439
lowerback 11.3327 1.50879 -1.72812
upperback 5.6194 1.85801 1.63893
thorax -0.59687 0.879608 2.45499
lowerneck -11.5204 -1.26188 -1.36859
upperneck 27.2258 -2.19868 2.67974
head 10.6769 -0.817975 0.924312
rclavicle 1.758e-015 6.41081e-015
rhumerus -24.9325 -23.9615 -78.0645
rradius 20.0333
rwrist 42.361
rhand -26.2771 -30.6864
rfingers 7.12502
rthumb 0.27811 -60.666
lclavicle 1.758e-015 6.41081e-015
lhumerus -26.8344 10.0107 85.88
lradius 2.70697
lwrist 0.837442
lhand -28.0633 -3.99875
lfingers 7.12502
lthumb -1.44703 25.9761
rfemur -37.7725 -0.818123 21.7055
rtibia 57.3196
rfoot -11.2886 0.838047
rtoes 11.8433
lfemur -39.3094 2.37893 -16.5154
ltibia 53.0636
lfoot -5.13575 3.60262
ltoes -6.54372
369
root 0.191417 15.3329 0.964117 -6.95907 1.70659 -2.81868
lowerback 11.6267 1.55176 -1.8076
upperback 5.78605 1.90399 1.71509
thorax -0.589181 0.898489 2.56951
lowerneck -11.591 -1.29217 -1.3634
upperneck 26.9628 -2.22287 2.63129
head 10.593 -0.835729 0.901036
rclavicle 7.55382e-015 -2.33572e-015
rhumerus -23.8828 -24.8084 -77.9719
rradius 19.6942
rwrist 44.016
rhand -26.1402 -31.0446
rfingers 7.12502
rthumb 0.410363 -61.024
lclavicle 7.55382e-015 -2.33572e-015
lhumerus -26.0247 10.2707 86.0215
lradius 2.65084
lwrist 0.527962
lhand -28.762 -4.28573
lfingers 7.12502
lthumb -2.12187 25.6835
rfemur -38.4119 -0.640186 21.8911
rtibia 60.2784
rfoot -12.8766 0.109082
rtoes 10.3909
lfemur -40.2035 2.47859 -16.3488
ltibia 56.5668
lfoot -6.52722 4.01813
ltoes -4.05971
370
root 0.187337 15.2014 1.09946 -7.62841 1.69188 -3.01643
lowerback 11.9516 1.56012 -1.71886
upperback 5.96346 1.92103 1.79522
thorax -0.580319 0.905828 2.59628
lowerneck -11.6293 -1.32146 -1.37586
upperneck 26.8751 -2.24723 2.58731
head 10.5682 -0.853692 0.88368
rclavicle 1.11257e-014 4.52235e-015
rhumerus -22.877 -25.1841 -78.0642
rradius 19.5415
rwrist 44.9858
rhand -25.9814 -31.2739
rfingers 7.12502
rthumb 0.563687 -61.2529
lclavicle 1.11257e-014 4.52235e-015
lhumerus -25.5347 10.5292 86.1394
lradius 3.25728
lwrist -0.122695
lhand -29.232 -4.3755
lfingers 7.12502
lthumb -2.57573 25.5887
rfemur -38.4078 -0.76053 22.19
rtibia 62.4381
rfoot -14.3195 -0.470589
rtoes 8.59482
lfemur -40.4713 2.65119 -16.133
ltibia 59.2219
lfoot -7.99981 4.55127
ltoes -4.37182
371
root 0.189605 15.1099 1.2271 -8.35006 1.73624 -3.24693
lowerback 12.3273 1.52972 -1.49495
upperback 6.12575 1.90119 1.85567
thorax -0.607454 0.898275 2.52968
lowerneck -11.6716 -1.35411 -1.42295
upperneck 27.0288 -2.28654 2.58847
head 10.6351 -0.874799 0.887914
rclavicle 1.89032e-014 1.22253e-014
rhumerus -21.9259 -24.9792 -78.3567
rradius 19.5928
rwrist 45.0784
rhand -25.8842 -31.3477
rfingers 7.12502
rthumb 0.657562 -61.3264
lclavicle 1.89032e-014 1.22253e-014
lhumerus -25.1547 10.7573 86.2133
lradius 4.0702
lwrist -1.03333
lhand -29.4646 -4.46485
lfingers 7.12502
lthumb -2.8004 25.4965
rfemur -37.8773 -1.12832 22.5039
rtibia 63.7607
rfoot -15.4525 -0.872324
rtoes 6.82011
lfemur -40.163 2.8424 -15.9189
ltibia 60.9242
lfoot -9.18708 5.05565
ltoes -5.775
372
root 0.196689 15.0445 1.34797 -9.00433 1.83422 -3.45493
lowerback 12.6598 1.47334 -1.21905
upperback 6.23922 1.85455 1.88445
thorax -0.658103 0.879634 2.40467
lowerneck -11.7243 -1.39269 -1.44842
upperneck 27.3913 -2.34125 2.57877
head 10.7824 -0.900317 0.883698
rclavicle 1.5294e-014 6.4605e-015
rhumerus -21.035 -24.1955 -78.8123
rradius 19.8433
rwrist 44.3579
rhand -25.8911 -31.2652
rfingers 7.12502
rthumb 0.650913 -61.244
lclavicle 1.5294e-014 6.4605e-015
lhumerus -24.8109 10.9458 86.2506
lradius 4.96468
lwrist -2.05763
lhand -29.3982 -4.49339
lfingers 7.12502
lthumb -2.73625 25.4688
rfemur -37.1966 -1.61781 22.7424
rtibia 64.6888
rfoot -16.4362 -1.11317
rtoes 5.46706
lfemur -39.6635 2.99017 -15.7393
ltibia 62.1495
lfoot -10.2109 5.45652
ltoes -6.98958
373
root 0.204036 15.087 1.43999 -9.43569 1.95704 -3.58278
lowerback 12.8068 1.41809 -1.00622
upperback 6.27441 1.80468 1.8773
thorax -0.691587 0.859205 2.28123
lowerneck -11.7993 -1.44244 -1.46161
upperneck 27.9079 -2.41989 2.57398
head 10.9941 -0.933429 0.876749
rclavicle 6.75868e-015 8.74653e-015
rhumerus -20.2007 -22.9346 -79.3699
rradius 20.2734
rwrist 43.0802
rhand -26.0054 -31.0622
rfingers 7.12502
rthumb 0.540547 -61.0413
lclavicle 6.75868e-015 8.74653e-015
lhumerus -24.4386 11.0927 86.263
lradius 5.85558
lwrist -3.04866
lhand -29.0386 -4.46495
lfingers 7.12502
lthumb -2.38902 25.5014
rfemur -36.276 -2.11208 22.8655
rtibia 65.0111
rfoot -17.2929 -1.22113
rtoes 4.69125
lfemur -38.8609 3.09381 -15.6534
ltibia 62.6976
lfoot -11.1044 5.83206
ltoes -7.87622
